<svg xmlns="http://www.w3.org/2000/svg" viewBox="0 0 396.56 28.8"><defs><style>.cls-1{fill:#fff;}</style></defs><g id="Layer_2" data-name="Layer 2"><g id="Layer_1-2" data-name="Layer 1"><path class="cls-1" d="M388.63,14.41A14,14,0,0,1,391,19.08l-2.67.14a13,13,0,0,0-2.27-4.44Zm-11.88-8a35.78,35.78,0,0,1,7.17,3.66l-2.26.62A34,34,0,0,0,375,7.31ZM357.58,1.87q5.52.76,10.14,1.84l-1.27,1c-2.94-.69-6.17-1.27-9.69-1.76ZM336.19.17C340,.3,343.6.49,347,.75l-.47,1.15c-3.32-.26-6.84-.44-10.55-.57Zm-21.54,0Q320.29,0,325.52,0V1.16q-5.14,0-10.71.14Zm-21.47,1q5.49-.33,10.68-.57l.27,1.16c-3.42.16-6.94.34-10.58.57ZM271.9,2.68c3.6-.32,7.12-.6,10.54-.86L282.9,3c-3.4.25-6.89.54-10.47.85Zm-21,2c3.57-.38,7.06-.73,10.46-1.07l.59,1.14q-5.08.5-10.42,1.06ZM230,7.08l10.39-1.22.7,1.13L230.69,8.2ZM209.3,9.66l10.31-1.31.76,1.11-10.31,1.32ZM188.76,12.4,199,11l.8,1.11-10.2,1.37Zm-20.51,2.83,10.14-1.41.82,1.11-10.15,1.4ZM147.94,18l7.28-1,2.75-.37.8,1.11-2.76.37-7.28,1Zm-20.61,2.57,10.33-1.25.73,1.12-10.34,1.26ZM106.5,22.81c3.41-.33,6.9-.69,10.49-1.08l.66,1.12c-3.61.4-7.13.76-10.55,1.1Zm-21,1.8c3.4-.24,6.92-.52,10.54-.83l.52,1.14q-5.48.46-10.63.84Zm-21.22,1.1c3.4-.11,6.94-.25,10.62-.45l.32,1.16c-3.72.2-7.31.34-10.76.45ZM43,25.67c3.32.13,6.86.2,10.59.2V27q-5.73,0-10.84-.2ZM22.65,23.54q4.47.87,9.94,1.42L32,26.09c-3.82-.38-7.31-.88-10.45-1.49ZM7.39,17.77a25.41,25.41,0,0,0,6.52,3.4l-1.74.89a28.05,28.05,0,0,1-7.11-3.71ZM2.68,9.07a9.83,9.83,0,0,0,1,4.5l-2.62.25A10.41,10.41,0,0,1,0,9.07Z"/><polygon class="cls-1" points="396.56 21.6 390.22 28.8 383.88 21.6 396.56 21.6"/></g></g></svg>