<svg xmlns="http://www.w3.org/2000/svg" viewBox="0 0 395.39 28.8"><defs><style>.cls-1{fill:#fff;}</style></defs><g id="Layer_2" data-name="Layer 2"><g id="Layer_1-2" data-name="Layer 1"><path class="cls-1" d="M10.92,10.07A10.93,10.93,0,0,0,8.33,14l-2.66-.15A11.61,11.61,0,0,1,8.42,9.69ZM23.71,3.93a40.09,40.09,0,0,0-7.66,2.65L14,5.92A43.25,43.25,0,0,1,22.26,3ZM43.37,1.34c-3.72.2-7.14.49-10.27.89l-.82-1Q37.2.62,43,.3Zm21-.16Q58.84,1,53.88,1.05l0-1c3.39,0,7,0,10.71.14ZM85.57,2.29q-5.46-.39-10.52-.66l.36-1c3.42.18,7,.4,10.65.67Zm21,1.85q-5.42-.55-10.5-1l.59-1c3.41.31,6.94.64,10.58,1Zm20.59,2.28q-5.33-.63-10.33-1.19l.74-1q5,.56,10.37,1.2ZM147.52,9l-2.46-.33-7.75-1,.84-1,7.77,1,2.46.32Zm20.29,2.78-10.16-1.41.9-1,10.16,1.41Zm20.2,2.9-10.16-1.47.93-1,10.16,1.47Zm20.15,2.92L198,16.14l.93-1,10.15,1.47Zm20.1,2.8-1-.13-8.92-1.22.89-1,8.9,1.22,1,.13ZM248.75,23q-5.12-.59-10.27-1.23l.81-1q5.13.64,10.22,1.23Zm20.74,2.22c-3.43-.34-6.9-.69-10.42-1.07l.71-1c3.5.37,7,.73,10.36,1.06ZM290.63,27c-3.46-.25-7-.54-10.57-.84l.58-1q5.34.46,10.49.84ZM312,28.28c-3.47-.16-7-.35-10.7-.57l.41-1q5.44.33,10.6.56Zm21.55.52q-5.2,0-10.81-.15l.17-1q5.53.15,10.65.15Zm21.69-.68q-5.1.36-10.81.53l-.21-1c3.72-.11,7.23-.29,10.54-.52Zm20.59-2.83q-4.5,1-10,1.77l-.87-1c3.5-.46,6.66-1,9.5-1.68Zm15.07-6.23a26.54,26.54,0,0,1-6.38,3.56l-1.94-.73a24.67,24.67,0,0,0,5.91-3.3Zm4.51-8.39a9.35,9.35,0,0,1-1,4.29l-2.63-.21a8.94,8.94,0,0,0,1-4.08Z"/><polygon class="cls-1" points="12.69 16.4 6.34 22.89 0 16.4 12.69 16.4"/></g></g></svg>